<?xml version="1.0" encoding="UTF-8"?>
<svg width="812px" height="248px" viewBox="0 0 812 248" version="1.1" xmlns="http://www.w3.org/2000/svg" xmlns:xlink="http://www.w3.org/1999/xlink">
    <title>mamba-logo-white</title>
    <g id="Page-1" stroke="none" stroke-width="1" fill="none" fill-rule="evenodd">
        <g id="mamba-logo-white" fill-rule="nonzero">
            <path d="M317.05,144.83 C317.05,132.51 316.999452,120.2 317.07,107.88 C317.13,97.22 320.33,87.76 327.6,79.67 C338.01,68.09 358.52,64.91 372.05,72.54 C381.85,78.06 387.94,86.18 390.8,96.73 C391.8,100.43 391.66,104.48 391.69,108.37 C391.79,121.99 391.67,135.61 391.77,149.23 C391.81,154.58 393.35,159.24 398.73,161.79 C404.33,164.43 411.75,161 413.03,154.93 C413.49,152.75 413.61,150.47 413.62,148.23 C413.67,135.32 413.54,122.41 413.68,109.51 C413.77,101.41 414.85,93.49 419.28,86.38 C424.86,77.44 432.57,71.31 442.98,69.24 C459.06,66.03 472.14,71.14 481.88,84.35 C486.93,91.21 488.42,99.22 488.45,107.49 C488.55,133.19 488.45,158.89 488.530058,184.58 C488.54,187.94 487.26,189.29 483.91,189.22 C478.1,189.09 472.28,189.02 466.47,189.25 C462.97,189.39 462.02,188.04 462.03,184.71 C462.13,159.13 462.05,133.55 462.11,107.97 C462.12,102.82 460.59,98.74 455.82,96.21 C449.61,92.92 441.34,97.16 440.57,104.18 C440.3,106.64 440.38,109.15 440.38,111.63 C440.36,124.54 440.45,137.45 440.34,150.35 C440.22,163.85 435.08,174.95 423.89,182.84 C406.53,195.09 380.41,189.69 370.11,169.88 C366.78,163.48 365.65,156.8 365.69,149.72 C365.78,135.86 365.73,122.01 365.7,108.15 C365.69,102.83 363.94,98.45 358.85,95.89 C353.25,93.08 345.52,96.72 344.36,102.91 C343.95,105.1 343.89,107.39 343.89,109.63 C343.86,134.38 343.87,159.13 343.87,183.88 C343.87,188.71 343.47,189.13 338.6,189.15 C332.79,189.18 326.97,189.09 321.16,189.17 C318.17,189.21 316.97,188.09 316.999452,184.97 C317.13,171.59 317.05,158.21 317.06,144.82 L317.05,144.83 Z" id="Path" fill="#FFFFFF"></path>
            <path d="M502.38,91.87 C502.38,61.68 502.38,36.28 502.38,6.09 C502.38,0.87 502.47,0.79 507.81,0.78 C512.79,0.78 517.77,0.78 522.76,0.78 C528.32,0.78 528.38,0.84 528.38,6.27 C528.38,29.59 528.38,48.13 528.38,71.45 C528.38,72.52 528.34,73.58 528.4,74.65 C528.55,77.6 529.57,78.09 532.21,76.84 C536.57,74.78 540.89,72.52 545.43,70.96 C558.04,66.62 570.72,66.59 583.41,70.96 C597.46,75.79 608.54,84.33 616.42,96.91 C626.16,112.49 629.01,129.31 623.69,146.87 C618.71,163.29 608.59,175.93 593.18,184.28 C577.04,193.02 560.42,193.45 543.34,188.14 C539.66,187 536.2,185.05 532.74,183.28 C529.59,181.66 528.73,181.86 528.4,185.22 C528.18,187.46 527.26,188.29 525.02,188.25 C518.62,188.16 512.21,188.14 505.81,188.25 C503.34,188.29 502.32,187.3 502.39,184.93 C502.42,183.75 502.37,182.56 502.37,181.38 C502.37,151.55 502.37,121.71 502.37,91.88 L502.38,91.87 Z M564,94.559882 C544.81,94.62 528.67,110.08 528.689981,129.81 C528.7,149.89 544.66,164.84 564.08,164.96 C582.97,165.08 599.47,149.92 599.39029,129.91 C599.32,110.35 583.56,94.51 564,94.559882 L564,94.559882 Z" id="Shape" fill="#FFFFFF"></path>
            <path d="M277.59,182.81 C272.94,184.93 268.55,187.2 263.98,188.96 C252.4,193.43 240.55,194 228.44,191.14 C213.88,187.7 202.14,179.87 193.39,168.03 C183.07,154.08 178.76,138.44 181.75,120.94 C184.85,102.85 194.3,89.07 209.27,78.98 C222.42,70.13 237.25,67.08 252.7,69.79 C272.55,73.28 287.52,84.16 297.37,101.99 C302.57,111.4 304.57,121.42 304.62,131.96 C304.7,149.37 304.66,166.77 304.64,184.18 C304.64,188.38 304.25,188.73 299.85,188.75 C294.39,188.77 288.93,188.62 283.48,188.81 C280.21,188.92 277.8,188.51 278.15,184.42 C278.19,183.91 277.79,183.36 277.59,182.82 L277.59,182.81 Z M207.51,130.74 C206.94,149.73 223.34,166.19 242.84,166.06 C263.07,165.92 278.12,149.66 278.210397,130.98 C278.3,112.37 263.07,96.03 242.9,95.87 C223.37,95.72 207,112.13 207.51,130.75 L207.51,130.74 Z" id="Shape" fill="#FFFFFF"></path>
            <path d="M728.35,182.77 C723.42,185.03 718.92,187.43 714.2,189.2 C703.06,193.36 691.61,193.96 679.99,191.39 C669.35,189.04 660.04,184.13 652.08,176.77 C641.53,167 634.67,155.22 632.53,140.81 C628.61,114.44 638.51,94.09 659.88,79.11 C672.96,69.94 688.03,67.04 703.6,69.82 C723.3,73.34 738.2,84.16 748.01,101.85 C753.16,111.13 755.27,121.02 755.31,131.45 C755.39,149.09 755.3,166.74 755.400277,184.38 C755.42,187.56 754.36,188.89 751.08,188.8 C745.27,188.64 739.45,188.6 733.64,188.82 C730.4,188.94 728.61,188.12 728.89,184.58 C728.93,184.05 728.57,183.49 728.35,182.78 L728.35,182.77 Z M658.22,130.77 C657.67,149.76 674.08,166.21 693.58,166.05 C713.82,165.89 728.85,149.6 728.92024,130.93 C728.99,112.31 713.73,95.99 693.57,95.85 C674.05,95.72 657.69,112.15 658.21,130.76 L658.22,130.77 Z" id="Shape" fill="#FFFFFF"></path>
            <circle id="Oval" fill="#80A25E" cx="793.81" cy="171.48" r="17.44"></circle>
            <path d="M0.8,202.87 C0.8,190.55 0.749452231,120.19 0.82,107.88 C0.88,97.22 4.08,87.76 11.35,79.67 C21.76,68.09 42.27,64.91 55.8,72.54 C65.6,78.06 71.69,86.18 74.55,96.73 C75.55,100.43 75.41,104.48 75.44,108.37 C75.54,121.99 75.42,135.61 75.52,149.23 C75.56,154.58 77.1,159.24 82.48,161.79 C88.08,164.43 95.5,161 96.78,154.93 C97.24,152.75 97.36,150.47 97.37,148.23 C97.42,135.32 97.29,122.41 97.43,109.51 C97.52,101.41 98.6,93.49 103.03,86.38 C108.61,77.44 116.32,71.31 126.73,69.24 C142.81,66.03 155.89,71.14 165.63,84.35 C170.68,91.21 172.17,99.22 172.2,107.49 C172.3,133.19 172.2,158.89 172.280058,184.58 C172.29,187.94 171.01,189.29 167.66,189.22 C161.85,189.09 156.03,189.02 150.22,189.25 C146.72,189.39 145.77,188.04 145.78,184.71 C145.88,159.13 145.8,133.55 145.86,107.97 C145.87,102.82 144.34,98.74 139.57,96.21 C133.36,92.92 125.09,97.16 124.32,104.18 C124.05,106.64 124.13,109.15 124.13,111.63 C124.11,124.54 124.2,137.45 124.09,150.35 C123.97,163.85 118.83,174.95 107.64,182.84 C90.28,195.09 64.16,189.69 53.86,169.88 C50.53,163.48 49.4,156.8 49.44,149.72 C49.53,135.86 49.48,122.01 49.45,108.15 C49.44,102.83 47.69,98.45 42.6,95.89 C37,93.08 29.27,96.72 28.11,102.91 C27.7,105.1 27.64,107.39 27.64,109.63 C27.61,134.38 27.62,217.18 27.62,241.93 C27.62,246.76 27.22,247.18 22.35,247.2 C16.54,247.23 10.72,247.14 4.91,247.22103 C1.92,247.26 0.72,246.14 0.749452231,243.02 C0.88,229.64 0.8,216.26 0.81,202.87 L0.8,202.87 Z" id="Path" fill="#FFFFFF"></path>
        </g>
    </g>
</svg>