<?xml version="1.0" encoding="UTF-8"?>
<svg width="426px" height="476px" viewBox="0 0 426 476" version="1.1" xmlns="http://www.w3.org/2000/svg" xmlns:xlink="http://www.w3.org/1999/xlink">
    <title>mamba-icon-black</title>
    <g id="Page-1" stroke="none" stroke-width="1" fill="none" fill-rule="evenodd">
        <g id="mamba-icon-black" fill-rule="nonzero">
            <path d="M1.01,357.52 C1.01,324.89 0.9,138.48 1.06,105.85 C1.2,77.6 9.12,52.55 27.08,31.12 C52.8,0.43 103.48,-7.97 136.93,12.22 C161.14,26.84 176.21,48.34 183.26,76.31 C185.73,86.1 185.39,96.84 185.46,107.16 C185.71,143.24 185.41,179.32 185.66,215.4 C185.76,229.58 189.56,241.92 202.87,248.66 C216.7,255.66 235.05,246.56 238.22,230.48 C239.36,224.7 239.66,218.65 239.68,212.72 C239.81,178.52 239.49,144.32 239.84,110.13 C240.06,88.68 242.73,67.68 253.69,48.85 C267.48,25.17 286.54,8.93 312.25,3.43 C351.98,-5.08 384.31,8.46 408.37,43.46 C420.86,61.62 424.53,82.86 424.61,104.76 C424.86,172.84 424.63,240.93 424.820095,309.01 C424.84,317.9 421.69,321.49 413.39,321.3 C413.39,321.42 384.44,321.42 370.29,321.38 C361.64,321.36 359.29,318.17 359.33,309.35 C359.58,241.58 359.37,173.81 359.54,106.04 C359.57,92.4 355.78,81.59 343.99,74.9 C328.65,66.19 308.21,77.42 306.31,96.01 C305.64,102.53 305.84,109.17 305.83,115.75 C305.79,149.95 306.01,184.15 305.74,218.34 C305.45,254.09 292.73,283.51 265.08,304.43 C222.17,336.89 157.62,322.58 132.18,270.11 C123.96,253.15 121.15,235.47 121.26,216.71 C121.48,180 121.36,143.29 121.29,106.59 C121.26,92.49 116.95,80.89 104.35,74.12 C90.51,66.68 71.41,76.32 68.55,92.72 C67.53,98.53 67.39,104.58 67.39,110.52 C67.31,176.09 67.35,395.44 67.33,461.02 C67.33,473.83 66.34,474.92 54.3,474.98 C39.93,475.053457 25.56,474.82 11.2,475.053457 C3.81,475.17 0.84,472.18 0.908793216,463.91 C1.22,428.46 1.04,393 1.05,357.55 L1.01,357.52 Z" id="Path" fill="#000000"></path>
            <circle id="Oval" fill="#80A25E" cx="392.12" cy="442.03" r="33.01"></circle>
        </g>
    </g>
</svg>